<?xml version="1.0" encoding="utf-8"?>
<!-- Svg Vector Icons : http://www.onlinewebfonts.com/icon -->
<!DOCTYPE svg PUBLIC "-//W3C//DTD SVG 1.1//EN" "http://www.w3.org/Graphics/SVG/1.1/DTD/svg11.dtd">
<svg version="1.1" xmlns="http://www.w3.org/2000/svg" xmlns:xlink="http://www.w3.org/1999/xlink" x="0px" y="0px" viewBox="0 0 256 256" enable-background="new 0 0 256 256" xml:space="preserve">
<metadata> Svg Vector Icons : http://www.onlinewebfonts.com/icon </metadata>
<g><g><g><path fill="#000000" d="M121.3,20.2c-17.2,2.5-30.7,16.4-36.1,37.1c-2.1,8-2.8,14.1-2.8,24.4c0,18.2,3.7,32.2,11.4,43.8c2.6,3.9,8.3,9.4,12.4,11.9c5.7,3.5,14.6,6.3,18.8,5.8l1.5-0.1l-1.9-2.8c-2.4-3.5-5.1-9.3-6.6-13.8c-2-6.1-2.7-11.3-2.5-18.9c0.4-9.8,1.8-14.9,8.8-32.3c5.7-14.1,7.2-20.7,7.2-31.3c0-6.9-0.7-12.5-2.4-19.9l-1-4.4l-2.1,0C125,19.8,122.8,19.9,121.3,20.2z"/><path fill="#000000" d="M129.4,19.9c0,0.1,1,1.7,2.1,3.6c6.5,10,9.4,20.6,8.8,32.6c-0.4,8.9-2.1,15.3-8.4,30.8c-3.8,9.4-6,16.3-7,22c-1.1,6.5-0.7,18.7,0.9,26.4c1.9,9,1.3,8.1,4.7,8.1c9,0,19-4.4,26.2-11.6c8.4-8.3,13.6-19.9,16-35.7c1.1-7.2,1.1-21.9,0-29.1c-2.3-15.1-7.1-26-15.1-34.5c-5.9-6.3-12.1-9.9-19.8-11.6C134,20,129.4,19.5,129.4,19.9z"/><path fill="#000000" d="M46.2,124.8c-7.1,0.8-14.8,4.1-20.8,8.9c-1.9,1.5-3.4,2.9-3.4,3.1c0,0.9,8.5,13,11.8,16.8c7.7,8.8,14.5,13.2,31.4,20.5c14,6,20.8,9.8,27,15.1c8.5,7.4,15.1,18.8,17.4,30.5c0.3,1.6,0.8,2.9,1,2.9c0.9,0.1,5-5.5,6.9-9.6c4.9-9.9,5.3-21.5,1.3-33.5c-6-18.1-24.3-38.4-43.2-48.2C65.3,125.9,55.6,123.8,46.2,124.8z"/><path fill="#000000" d="M200.5,124.8c-12.3,1.3-25.5,7.9-38.3,19.2c-9.2,8.1-16.7,17.7-21.7,27.8c-4.4,8.8-5.6,13.3-5.9,22c-0.3,8.2,0.6,12.7,3.8,19.2c2.1,4.3,6.1,9.8,6.9,9.5c0.3-0.1,0.7-1.5,1.1-3.2c2-10.1,7.6-20.6,15-27.8c6.4-6.4,13.9-10.8,29.8-17.6c16.6-7.1,23.4-11.5,31.1-20.3c3.2-3.7,11.8-15.8,11.8-16.7c0-0.2-1-1.2-2.2-2.2c-7.1-5.9-14-8.9-22.6-9.9c-2.3-0.2-4.5-0.4-4.9-0.4C204.1,124.4,202.2,124.6,200.5,124.8z"/><path fill="#000000" d="M19.2,139.9c-7.5,8.5-10.7,20.5-8.6,32.9c3.9,24.2,29.7,52.8,55.1,61c13.4,4.3,25.9,3.1,36.5-3.7c3.4-2.1,7.3-5.6,7.3-6.3c0-0.7-6.6-10.6-9.6-14.3c-3.9-4.8-9.1-9.5-14.1-12.9c-5.3-3.6-8-4.9-20.3-10.1c-5.5-2.3-11.5-5.1-13.4-6.1c-15.9-8.7-25.5-20.7-29.6-37.2c-0.5-2-1-4.1-1.1-4.6C21.3,137.8,20.9,138,19.2,139.9z"/><path fill="#000000" d="M234.1,140.7c-1.6,7.9-5.4,16.7-9.8,22.6c-3.3,4.4-9.5,10.2-14.4,13.5c-5,3.2-9.4,5.4-20.8,10.3c-10.5,4.4-13.6,6-18.8,9.5c-5,3.4-10.2,8.1-14.1,12.9c-3.2,4-9.6,13.6-9.6,14.4c0,0.8,2.6,3.1,6.8,5.8c10.9,7.3,23.4,8.6,37.6,3.9c21.7-7.2,45-30.5,52.5-52.6c3.6-10.5,3.6-20.9,0-30.2c-1.5-3.8-5.1-9.7-7.3-11.7l-1.3-1.3L234.1,140.7z"/></g></g></g>
</svg>